<svg width="15" height="15" viewBox="0 0 15 15" fill="none" xmlns="http://www.w3.org/2000/svg">
<rect width="15" height="15" rx="5" fill="#0075FF"/>
<path fill-rule="evenodd" clip-rule="evenodd" d="M4.47404 10.7896C4.21242 10.528 4.21242 10.1038 4.47404 9.84222L6.68455 7.63171L4.47396 5.42112C4.21234 5.1595 4.21234 4.73533 4.47396 4.47371C4.73558 4.21209 5.15975 4.21209 5.42137 4.47371L7.63196 6.6843L9.8427 4.47356C10.1043 4.21194 10.5285 4.21194 10.7901 4.47356C11.0517 4.73518 11.0517 5.15935 10.7901 5.42097L8.57937 7.63171L10.79 9.84237C11.0516 10.104 11.0516 10.5282 10.79 10.7898C10.5284 11.0514 10.1042 11.0514 9.84262 10.7898L7.63196 8.57912L5.42145 10.7896C5.15983 11.0512 4.73566 11.0512 4.47404 10.7896Z" fill="#F5F5F5"/>
</svg>
