<svg width="20" height="20" viewBox="0 0 20 20" fill="none" xmlns="http://www.w3.org/2000/svg">
<rect x="0.5" y="0.5" width="19" height="19" rx="4.5" stroke="black"/>
<path fill-rule="evenodd" clip-rule="evenodd" d="M5.9649 14.3862C5.61607 14.0373 5.61607 13.4718 5.9649 13.123L8.9122 10.1757L5.96471 7.22816C5.61588 6.87934 5.61588 6.31378 5.96471 5.96495C6.31353 5.61612 6.8791 5.61612 7.22792 5.96495L10.1754 8.91244L13.1231 5.96474C13.4719 5.61592 14.0375 5.61592 14.3863 5.96475C14.7352 6.31357 14.7352 6.87913 14.3863 7.22796L11.4386 10.1757L14.3861 13.1232C14.735 13.472 14.735 14.0375 14.3861 14.3864C14.0373 14.7352 13.4717 14.7352 13.1229 14.3864L10.1754 11.4389L7.22812 14.3862C6.87929 14.735 6.31373 14.735 5.9649 14.3862Z" fill="black"/>
</svg>
