<svg width="15" height="15" viewBox="0 0 15 15" fill="none" xmlns="http://www.w3.org/2000/svg">
<rect x="0.5" y="0.5" width="14" height="14" rx="4.5" stroke="black"/>
<path fill-rule="evenodd" clip-rule="evenodd" d="M4.47365 4.47356C4.73527 4.21194 5.15944 4.21194 5.42106 4.47356L7.63205 6.68455L9.8427 4.47389C10.1043 4.21227 10.5285 4.21227 10.7901 4.47389C11.0517 4.73551 11.0517 5.15968 10.7901 5.4213L8.57946 7.63196L10.7897 9.84222C11.0513 10.1038 11.0513 10.528 10.7897 10.7896C10.5281 11.0512 10.1039 11.0513 9.84231 10.7896L7.63205 8.57937L5.42145 10.79C5.15983 11.0516 4.73566 11.0516 4.47404 10.79C4.21242 10.5283 4.21242 10.1042 4.47404 9.84256L6.68464 7.63196L4.47365 5.42097C4.21203 5.15935 4.21203 4.73518 4.47365 4.47356Z" fill="black"/>
</svg>
