<svg width="15" height="15" viewBox="0 0 15 15" fill="none" xmlns="http://www.w3.org/2000/svg">
<rect x="0.5" y="0.5" width="14" height="14" rx="4.5" stroke="#0075FF"/>
<path fill-rule="evenodd" clip-rule="evenodd" d="M3.16621 7.63037C3.16621 7.26038 3.46615 6.96045 3.83613 6.96045L6.96212 6.96045L6.96212 3.83423C6.96211 3.46424 7.26205 3.16431 7.63204 3.16431C8.00202 3.16431 8.30196 3.46424 8.30196 3.83423L8.30196 6.96045L11.4286 6.96045C11.7986 6.96045 12.0985 7.26038 12.0985 7.63037C12.0985 8.00036 11.7986 8.30029 11.4286 8.30029L8.30196 8.30029L8.30196 11.4267C8.30196 11.7966 8.00202 12.0966 7.63204 12.0966C7.26205 12.0966 6.96212 11.7966 6.96212 11.4267L6.96212 8.30029L3.83613 8.30029C3.46615 8.30029 3.16621 8.00036 3.16621 7.63037Z" fill="#0075FF"/>
</svg>
