<svg width="24" height="24" viewBox="0 0 24 24" fill="none" xmlns="http://www.w3.org/2000/svg">
<path d="M9 1.25L15 1.25C20.43 1.25 22.75 3.57 22.75 9L22.75 15C22.75 20.43 20.43 22.75 15 22.75L9 22.75C3.57 22.75 1.25 20.43 1.25 15L1.25 9C1.25 3.57 3.57 1.25 9 1.25ZM15 21.25C19.61 21.25 21.25 19.61 21.25 15L21.25 9C21.25 4.39 19.61 2.75 15 2.75L9 2.75C4.39 2.75 2.75 4.39 2.75 9L2.75 15C2.75 19.61 4.39 21.25 9 21.25L15 21.25Z" fill="#0075FF"/>
<path d="M10.74 7.71996C10.93 7.71996 11.12 7.78997 11.27 7.93997L14.8 11.47C15.09 11.76 15.09 12.24 14.8 12.53L11.27 16.06C10.98 16.35 10.5 16.35 10.21 16.06C9.91996 15.77 9.91996 15.29 10.21 15L13.21 12L10.21 8.99997C9.91996 8.70997 9.91996 8.22997 10.21 7.93997C10.35 7.78997 10.54 7.71996 10.74 7.71996Z" fill="#0075FF"/>
</svg>
