<svg width="15" height="15" viewBox="0 0 15 15" fill="none" xmlns="http://www.w3.org/2000/svg">
<path d="M4.68752 9.53127C4.56877 9.53127 4.45002 9.48752 4.35627 9.39377C4.17502 9.21252 4.17502 8.91252 4.35627 8.73127L6.35627 6.73127C6.45627 6.63127 6.58752 6.58127 6.73128 6.59377C6.86877 6.60627 6.99377 6.68127 7.07502 6.80002L7.75627 7.82502L9.97502 5.60627C10.1563 5.42502 10.4563 5.42502 10.6375 5.60627C10.8188 5.78752 10.8188 6.08752 10.6375 6.26877L8.01252 8.89377C7.91252 8.99377 7.78127 9.04377 7.63752 9.03127C7.50002 9.01877 7.37502 8.94377 7.29377 8.82502L6.61252 7.80002L5.01877 9.39377C4.92502 9.48752 4.80627 9.53127 4.68752 9.53127Z" fill="#00D715"/>
<path d="M10.3125 7.65625C10.0562 7.65625 9.84375 7.44375 9.84375 7.1875V6.40625H9.0625C8.80625 6.40625 8.59375 6.19375 8.59375 5.9375C8.59375 5.68125 8.80625 5.46875 9.0625 5.46875H10.3125C10.5688 5.46875 10.7812 5.68125 10.7812 5.9375V7.1875C10.7812 7.44375 10.5688 7.65625 10.3125 7.65625Z" fill="#00D715"/>
<path d="M9.375 14.2188H5.625C2.23125 14.2188 0.78125 12.7688 0.78125 9.375V5.625C0.78125 2.23125 2.23125 0.78125 5.625 0.78125H9.375C12.7688 0.78125 14.2188 2.23125 14.2188 5.625V9.375C14.2188 12.7688 12.7688 14.2188 9.375 14.2188ZM5.625 1.71875C2.74375 1.71875 1.71875 2.74375 1.71875 5.625V9.375C1.71875 12.2563 2.74375 13.2812 5.625 13.2812H9.375C12.2563 13.2812 13.2812 12.2563 13.2812 9.375V5.625C13.2812 2.74375 12.2563 1.71875 9.375 1.71875H5.625Z" fill="#00D715"/>
</svg>
