<svg width="15" height="15" viewBox="0 0 15 15" fill="none" xmlns="http://www.w3.org/2000/svg">
<path d="M10.3125 9.53127C10.1937 9.53127 10.075 9.48752 9.98125 9.39377L7.7625 7.17502L7.08125 8.20002C7.00625 8.31877 6.875 8.39377 6.7375 8.40627C6.59375 8.41877 6.45625 8.36877 6.3625 8.26877L4.3625 6.26877C4.18125 6.08752 4.18125 5.78752 4.3625 5.60627C4.54375 5.42502 4.84375 5.42502 5.025 5.60627L6.61875 7.20002L7.3 6.17502C7.375 6.06252 7.5 5.98752 7.64375 5.96877C7.7875 5.95627 7.925 6.00627 8.01875 6.10627L10.6438 8.73127C10.825 8.91252 10.825 9.21252 10.6438 9.39377C10.55 9.48752 10.4313 9.53127 10.3125 9.53127Z" fill="#FF0000"/>
<path d="M10.3125 9.53125H9.0625C8.80625 9.53125 8.59375 9.31875 8.59375 9.0625C8.59375 8.80625 8.80625 8.59375 9.0625 8.59375H9.84375V7.8125C9.84375 7.55625 10.0562 7.34375 10.3125 7.34375C10.5688 7.34375 10.7812 7.55625 10.7812 7.8125V9.0625C10.7812 9.31875 10.5688 9.53125 10.3125 9.53125Z" fill="#FF0000"/>
<path d="M9.375 14.2188H5.625C2.23125 14.2188 0.78125 12.7688 0.78125 9.375V5.625C0.78125 2.23125 2.23125 0.78125 5.625 0.78125H9.375C12.7688 0.78125 14.2188 2.23125 14.2188 5.625V9.375C14.2188 12.7688 12.7688 14.2188 9.375 14.2188ZM5.625 1.71875C2.74375 1.71875 1.71875 2.74375 1.71875 5.625V9.375C1.71875 12.2563 2.74375 13.2812 5.625 13.2812H9.375C12.2563 13.2812 13.2812 12.2563 13.2812 9.375V5.625C13.2812 2.74375 12.2563 1.71875 9.375 1.71875H5.625Z" fill="#FF0000"/>
</svg>
