<svg width="148" height="32" viewBox="0 0 148 32" fill="none" xmlns="http://www.w3.org/2000/svg">
<g clip-path="url(#clip0_1_1026)">
<path d="M0 15.4987V11.1254H2.11679L3.0904 11.1521H10.5785L11.2294 11.1254H14.1885V15.4987H11.7052V13.4081H2.48326V15.4987H0ZM2.22618 3.09338H12.3507V12.6401H9.6869V4.18138L10.8848 5.36538H3.65378L4.7532 4.50138C4.81883 4.94938 4.86259 5.38138 4.879 5.80272C4.89541 6.21872 4.90635 6.61872 4.90635 6.99205C4.90635 8.09072 4.81336 9.01872 4.62192 9.77072C4.43595 10.5227 4.15153 11.0934 3.78505 11.4827C3.41311 11.8721 2.95366 12.0694 2.41215 12.0694L1.29633 11.1627C1.67921 10.7307 1.9691 10.1281 2.15507 9.35472C2.34105 8.58138 2.4395 7.62138 2.4395 6.47472C2.4395 5.95205 2.42309 5.40805 2.3848 4.84272C2.34652 4.27205 2.29182 3.69072 2.22618 3.09338Z" fill="white"/>
<path d="M16.1741 13.4081V3.09338H18.7995V12.0587L18.0228 11.9094L24.3677 3.09338H27.8355V13.4081H25.2265V4.29338L25.9868 4.44272L19.5598 13.4081H16.1741Z" fill="white"/>
<path d="M35.34 13.6267C34.2406 13.6267 33.2779 13.4774 32.4465 13.1734C31.6206 12.8694 30.9752 12.4427 30.5157 11.8881C30.0563 11.3334 29.8046 10.6827 29.7664 9.94138H32.4301C32.5067 10.4801 32.7857 10.8961 33.2779 11.1841C33.7647 11.4721 34.4539 11.6161 35.3345 11.6161C36.1605 11.6161 36.8059 11.5041 37.2599 11.2747C37.7139 11.0454 37.9436 10.7041 37.9436 10.2454C37.9436 9.85072 37.7522 9.56272 37.3638 9.38138C36.9755 9.20005 36.3519 9.10405 35.4877 9.10405H33.5131V7.37072H35.4439C35.9526 7.37072 36.3738 7.32272 36.7074 7.22138C37.0411 7.12005 37.2872 6.97605 37.4459 6.79472C37.6045 6.61338 37.6865 6.40005 37.6865 6.16005C37.6865 5.88272 37.5935 5.65338 37.4021 5.45605C37.2161 5.26405 36.9481 5.12005 36.5981 5.02405C36.248 4.92805 35.8323 4.88005 35.3455 4.88005C34.5469 4.88005 33.9124 5.01872 33.4475 5.30138C32.9826 5.57872 32.7091 5.97338 32.6216 6.47472H29.9851C30.0344 5.80805 30.275 5.20005 30.7126 4.66138C31.1502 4.12272 31.7683 3.68538 32.5723 3.36005C33.3764 3.03472 34.3445 2.86938 35.4713 2.86938C36.4668 2.86938 37.331 2.99205 38.0639 3.24272C38.7969 3.48805 39.3657 3.82938 39.776 4.26138C40.1862 4.69338 40.3886 5.18938 40.3886 5.76005C40.3886 6.22938 40.2464 6.65605 39.9565 7.05072C39.672 7.44538 39.2235 7.75472 38.6164 7.98405C38.0092 8.21338 37.2271 8.32538 36.2699 8.31472V8.03738C37.1833 7.98938 37.9655 8.05338 38.6164 8.22405C39.2673 8.39472 39.7705 8.66138 40.126 9.02938C40.4761 9.39738 40.6566 9.86138 40.6566 10.4321C40.6566 11.0561 40.4487 11.6054 40.0385 12.0907C39.6228 12.5707 39.0211 12.9494 38.228 13.2161C37.4459 13.4934 36.4777 13.6267 35.34 13.6267Z" fill="white"/>
<path d="M49.7145 3.09338L54.5935 13.4081H51.7602L47.5704 4.18138H48.3908L44.2174 13.4081H41.3677L46.2576 3.09338H49.7145ZM44.2721 11.3334V9.22672H51.5797V11.3281H44.2721V11.3334Z" fill="white"/>
<path d="M56.2288 13.408V3.09333H58.8542V12.0587L58.0775 11.9093L64.4224 3.09333H67.8902V13.408H65.2812V4.29333L66.0415 4.44267L59.6091 13.408H56.2288ZM58.526 0H60.6428C60.7577 0.309333 60.9273 0.549333 61.157 0.709333C61.3867 0.869333 61.6711 0.949333 62.0103 0.949333C62.3658 0.949333 62.6612 0.869333 62.8854 0.709333C63.1097 0.549333 63.2792 0.314667 63.3941 0H65.5109C65.303 0.832 64.8928 1.44533 64.2747 1.82933C63.6567 2.21333 62.9018 2.40533 62.0103 2.40533C61.1242 2.40533 60.3748 2.21333 59.7513 1.82933C59.1332 1.44533 58.723 0.832 58.526 0Z" fill="white"/>
<path d="M70.5159 3.09338H73.1796V13.4081H70.5159V3.09338ZM71.9982 7.04005H80.0496V9.32272H71.9982V7.04005ZM78.9228 3.09338H81.5866V13.4081H78.9228V3.09338Z" fill="white"/>
<path d="M16.546 25.648C16.442 26.5387 16.1248 27.3173 15.5997 27.9947C15.0746 28.6667 14.3745 29.1947 13.5103 29.568C12.6461 29.9413 11.6615 30.1333 10.5621 30.1333C9.34233 30.1333 8.27026 29.9093 7.35135 29.4613C6.43244 29.0133 5.72137 28.384 5.21268 27.5787C4.704 26.7733 4.45239 25.8347 4.45239 24.7573C4.45239 23.6853 4.704 22.7467 5.21268 21.936C5.72137 21.1307 6.43244 20.5013 7.35135 20.0533C8.27026 19.6053 9.33686 19.3813 10.5621 19.3813C11.6615 19.3813 12.6461 19.568 13.5103 19.9467C14.3745 20.3253 15.0691 20.8427 15.5997 21.5147C16.1248 22.1813 16.442 22.9653 16.546 23.8667H13.8658C13.7728 23.3973 13.5814 23.0027 13.2969 22.672C13.0125 22.3413 12.6351 22.0853 12.1702 21.9093C11.7053 21.7333 11.1638 21.6427 10.5566 21.6427C9.85102 21.6427 9.24388 21.7707 8.73519 22.0213C8.22651 22.272 7.83816 22.6347 7.56467 23.0987C7.29118 23.568 7.15444 24.1227 7.15444 24.7627C7.15444 25.4027 7.29118 25.9573 7.56467 26.4267C7.83816 26.896 8.22651 27.2533 8.73519 27.504C9.24388 27.7547 9.85102 27.8827 10.5566 27.8827C11.1692 27.8827 11.7053 27.7973 12.1702 27.6213C12.6351 27.4453 13.0125 27.1947 13.2969 26.864C13.5814 26.5333 13.7728 26.128 13.8658 25.6533H16.546V25.648Z" fill="white"/>
<path d="M17.4048 19.5947H28.306V21.8934H17.4048V19.5947ZM21.5235 20.7521H24.1873V29.9094H21.5235V20.7521Z" fill="white"/>
<path d="M34.4811 28.4641L29.2083 19.5947H32.14L36.3572 26.7041L34.4811 28.4641ZM32.6487 29.9094L34.5084 26.7627H34.5522L38.7529 19.6001H41.63L35.5258 29.9094H32.6487Z" fill="white"/>
<path d="M41.1926 32.0001V27.6267H43.3094L44.283 27.6534H51.7711L52.422 27.6267H55.3811V32.0001H52.8979V29.9094H43.6759V32.0001H41.1926ZM43.4243 19.5947H53.5488V29.1361H50.885V20.6827L52.0829 21.8667H44.8464L45.9458 20.9974C46.0115 21.4454 46.0552 21.8774 46.0716 22.2987C46.088 22.7147 46.099 23.1147 46.099 23.4881C46.099 24.5867 46.006 25.5147 45.8146 26.2667C45.6286 27.0187 45.3442 27.5894 44.9777 27.9787C44.6057 28.3681 44.1463 28.5654 43.6048 28.5654L42.489 27.6587C42.8718 27.2267 43.1617 26.6241 43.3477 25.8507C43.5337 25.0774 43.6321 24.1174 43.6321 22.9707C43.6321 22.4481 43.6157 21.9041 43.5774 21.3387C43.5391 20.7734 43.4899 20.1921 43.4243 19.5947Z" fill="white"/>
<path d="M57.3721 29.9094V19.5947H59.9975V28.5601L59.2208 28.4107L65.5657 19.5947H69.0335V29.9094H66.4245V20.7947L67.1848 20.9441L60.7524 29.9094H57.3721Z" fill="white"/>
<path d="M77.8506 25.0827L74.1148 29.9094H71.0244L74.8587 25.0827H77.8506ZM79.7541 24.2454V26.1014H75.2689L75.2525 26.0481C74.4649 26.0481 73.7702 25.9147 73.1795 25.6481C72.5888 25.3814 72.1238 25.0134 71.7902 24.5334C71.4565 24.0587 71.287 23.4987 71.287 22.8534C71.287 22.2027 71.4565 21.6321 71.7902 21.1467C72.1238 20.6614 72.5888 20.2827 73.1795 20.0054C73.7702 19.7281 74.4649 19.5947 75.2525 19.5947H81.5865V29.9094H78.9227V20.2987L80.1206 21.4667H75.619C75.0994 21.4667 74.7001 21.5894 74.4047 21.8401C74.1148 22.0854 73.9671 22.4267 73.9671 22.8587C73.9671 23.2907 74.1148 23.6267 74.4047 23.8774C74.6946 24.1227 75.0994 24.2507 75.619 24.2507H79.7541V24.2454Z" fill="white"/>
<path d="M127.346 3.07202H118.742V8.10669H127.346V3.07202Z" fill="white"/>
<path d="M92.0666 8.10669C93.4924 8.10669 94.6483 6.97964 94.6483 5.58935C94.6483 4.19907 93.4924 3.07202 92.0666 3.07202C90.6407 3.07202 89.4849 4.19907 89.4849 5.58935C89.4849 6.97964 90.6407 8.10669 92.0666 8.10669Z" fill="#FF0000"/>
<path d="M112.715 8.10669C114.141 8.10669 115.296 6.97964 115.296 5.58935C115.296 4.19907 114.141 3.07202 112.715 3.07202C111.289 3.07202 110.133 4.19907 110.133 5.58935C110.133 6.97964 111.289 8.10669 112.715 8.10669Z" fill="#00E100"/>
<path d="M133.369 8.10669C134.794 8.10669 135.95 6.97964 135.95 5.58935C135.95 4.19907 134.794 3.07202 133.369 3.07202C131.943 3.07202 130.787 4.19907 130.787 5.58935C130.787 6.97964 131.943 8.10669 133.369 8.10669Z" fill="#0050FF"/>
<path d="M101.529 11.4614H106.693C106.693 6.82669 102.842 3.07202 98.0887 3.07202V8.10669C99.9867 8.10669 101.529 9.60535 101.529 11.4614Z" fill="white"/>
<path d="M147.995 3.07202H139.391V8.10669H147.995V3.07202Z" fill="white"/>
<path d="M118.742 13.1413C117.517 13.1413 116.352 13.392 115.302 13.84V11.4613H110.139V21.5253V21.5306H115.302C115.302 19.6746 116.844 18.176 118.742 18.176C120.646 18.176 122.183 19.68 122.183 21.5306C122.183 23.3866 120.64 24.8853 118.742 24.8853V29.92C123.496 29.92 127.346 26.1653 127.346 21.5306C127.346 16.896 123.496 13.1413 118.742 13.1413Z" fill="white"/>
<path d="M139.391 13.1413C138.166 13.1413 137 13.392 135.95 13.84V11.4613H130.787V21.5253V21.5306H135.95C135.95 19.6746 137.493 18.176 139.391 18.176C141.294 18.176 142.831 19.68 142.831 21.5306C142.831 23.3866 141.289 24.8853 139.391 24.8853V29.92C144.144 29.92 147.995 26.1653 147.995 21.5306C148 16.896 144.144 13.1413 139.391 13.1413Z" fill="white"/>
<path d="M98.0887 21.5306C102.295 21.5306 105.807 18.6613 106.687 14.8159H101.064C100.468 15.8186 99.3577 16.4959 98.0887 16.4959C93.3356 16.4959 89.4849 20.2506 89.4849 24.8853V29.9199H106.884V24.8853H94.6428C94.6483 23.0346 96.1853 21.5306 98.0887 21.5306Z" fill="white"/>
</g>
<defs>
<clipPath id="clip0_1_1026">
<rect width="148" height="32" fill="white"/>
</clipPath>
</defs>
</svg>
